<mxfile host="app.diagrams.net" modified="2024-06-03T09:02:05.571Z" agent="Mozilla/5.0 (Windows NT 10.0; Win64; x64) AppleWebKit/537.36 (KHTML, like Gecko) Chrome/125.0.0.0 Safari/537.36" etag="veV62ZCyDYDeYLjY2dyr" version="24.4.13" type="device">
  <diagram name="Страница — 1" id="PNDEV-3fyrscD3mElMuB">
    <mxGraphModel dx="1455" dy="780" grid="1" gridSize="10" guides="1" tooltips="1" connect="1" arrows="1" fold="1" page="1" pageScale="1" pageWidth="827" pageHeight="1169" math="0" shadow="0">
      <root>
        <mxCell id="0" />
        <mxCell id="1" parent="0" />
        <mxCell id="h4n_g8P2GBC984NHyfy7-9" style="edgeStyle=none;curved=1;rounded=0;orthogonalLoop=1;jettySize=auto;html=1;fontSize=12;startSize=8;endSize=8;" edge="1" parent="1" source="h4n_g8P2GBC984NHyfy7-1" target="h4n_g8P2GBC984NHyfy7-6">
          <mxGeometry relative="1" as="geometry" />
        </mxCell>
        <mxCell id="h4n_g8P2GBC984NHyfy7-11" value="Экспорт данных" style="edgeLabel;html=1;align=center;verticalAlign=middle;resizable=0;points=[];fontSize=12;" vertex="1" connectable="0" parent="h4n_g8P2GBC984NHyfy7-9">
          <mxGeometry x="-0.4" y="1" relative="1" as="geometry">
            <mxPoint x="21" y="1" as="offset" />
          </mxGeometry>
        </mxCell>
        <mxCell id="h4n_g8P2GBC984NHyfy7-1" value="Сбор данных" style="rounded=0;whiteSpace=wrap;html=1;" vertex="1" parent="1">
          <mxGeometry x="-50" y="170" width="120" height="70" as="geometry" />
        </mxCell>
        <mxCell id="h4n_g8P2GBC984NHyfy7-3" value="Обработка&amp;nbsp; и&amp;nbsp;&lt;span style=&quot;background-color: initial;&quot;&gt;визуализация данных&lt;/span&gt;" style="rounded=0;whiteSpace=wrap;html=1;" vertex="1" parent="1">
          <mxGeometry x="400" y="170" width="120" height="70" as="geometry" />
        </mxCell>
        <mxCell id="h4n_g8P2GBC984NHyfy7-5" value="База данных" style="text;html=1;align=center;verticalAlign=middle;resizable=0;points=[];autosize=1;strokeColor=none;fillColor=none;fontSize=14;" vertex="1" parent="1">
          <mxGeometry x="175" y="130" width="110" height="30" as="geometry" />
        </mxCell>
        <mxCell id="h4n_g8P2GBC984NHyfy7-10" style="edgeStyle=none;curved=1;rounded=0;orthogonalLoop=1;jettySize=auto;html=1;entryX=0;entryY=0.75;entryDx=0;entryDy=0;fontSize=12;startSize=8;endSize=8;exitX=1;exitY=1;exitDx=0;exitDy=-15;exitPerimeter=0;" edge="1" parent="1" source="h4n_g8P2GBC984NHyfy7-6" target="h4n_g8P2GBC984NHyfy7-3">
          <mxGeometry relative="1" as="geometry" />
        </mxCell>
        <mxCell id="h4n_g8P2GBC984NHyfy7-12" value="Передача данных" style="edgeLabel;html=1;align=center;verticalAlign=middle;resizable=0;points=[];fontSize=12;" vertex="1" connectable="0" parent="h4n_g8P2GBC984NHyfy7-10">
          <mxGeometry x="-0.125" y="1" relative="1" as="geometry">
            <mxPoint x="9" as="offset" />
          </mxGeometry>
        </mxCell>
        <mxCell id="h4n_g8P2GBC984NHyfy7-6" value="Хранение данных" style="shape=cylinder3;whiteSpace=wrap;html=1;boundedLbl=1;backgroundOutline=1;size=15;" vertex="1" parent="1">
          <mxGeometry x="200" y="160" width="60" height="80" as="geometry" />
        </mxCell>
        <mxCell id="h4n_g8P2GBC984NHyfy7-7" value="Аппаратный комплекс с датчиками" style="text;html=1;align=left;verticalAlign=middle;whiteSpace=wrap;rounded=0;fontSize=14;" vertex="1" parent="1">
          <mxGeometry x="-50" y="130" width="170" height="30" as="geometry" />
        </mxCell>
        <mxCell id="h4n_g8P2GBC984NHyfy7-8" value="Веб-сервис" style="text;html=1;align=center;verticalAlign=middle;resizable=0;points=[];autosize=1;strokeColor=none;fillColor=none;fontSize=14;" vertex="1" parent="1">
          <mxGeometry x="400" y="130" width="100" height="30" as="geometry" />
        </mxCell>
        <mxCell id="h4n_g8P2GBC984NHyfy7-13" style="edgeStyle=none;curved=1;rounded=0;orthogonalLoop=1;jettySize=auto;html=1;entryX=1;entryY=0;entryDx=0;entryDy=27.5;entryPerimeter=0;fontSize=12;startSize=8;endSize=8;exitX=0;exitY=0.25;exitDx=0;exitDy=0;" edge="1" parent="1" source="h4n_g8P2GBC984NHyfy7-3" target="h4n_g8P2GBC984NHyfy7-6">
          <mxGeometry relative="1" as="geometry" />
        </mxCell>
        <mxCell id="h4n_g8P2GBC984NHyfy7-15" value="Запросы" style="edgeLabel;html=1;align=center;verticalAlign=middle;resizable=0;points=[];fontSize=12;" vertex="1" connectable="0" parent="h4n_g8P2GBC984NHyfy7-13">
          <mxGeometry x="-0.1571" relative="1" as="geometry">
            <mxPoint x="-11" as="offset" />
          </mxGeometry>
        </mxCell>
      </root>
    </mxGraphModel>
  </diagram>
</mxfile>
